<svg xmlns="http://www.w3.org/2000/svg" version="1.1" viewBox="0 0 1000000 1363000" height="64" width="64">
 <style>
  path { fill: #333d29; }
  @media (prefers-color-scheme: dark) { path { fill: #ffffff; } }
 </style>
 <g>
  <path  d="M349673 890813l0 122527 240033 0 0 81693 -280873 0 -40847 0 0 -40847 0 -163373 -227133 0 -40847 0 0 -40840 0 -267980 0 -40847 40847 0 267980 0 40840 0 0 40847 0 93153 199193 0 0 -93153 0 -40847 40840 0 267980 0 40847 0 0 40847 0 267980 0 40840 -40847 0 -267980 0 -40840 0 0 -40840 0 -93147 -199193 0 0 29373 0 63773 0 40840zm74773 -676393l371380 -214420 40840 70740 -390327 225360 -446333 0 0 -81680 424440 0zm229020 245047l305707 -176507 40833 70740 -183167 105767 -163373 0zm-185240 -81680l409240 -236287 40833 70740 -428187 247227 -490107 0 0 -81680 468220 0zm430307 594720l0 349660 0 40840 -40847 0 -816833 0 -40847 0 0 -40840 0 -349660 81680 0 0 308820 735167 0 0 -308820 81680 0zm-630547 -349667l-186300 0 0 186293 186300 0 0 -22933 0 -163360zm548867 0l-186300 0 0 186293 186300 0 0 -186293z"/>
 </g>
</svg>